<svg xmlns="http://www.w3.org/2000/svg" viewBox="0 0 1200 300" width="1200" height="300">
<rect width="1200" height="300" fill="#F7F4EC"/>
<rect x="0" y="0" width="1200" height="6" fill="#C9A24B"/>
<text x="600" y="46" text-anchor="middle" font-family="'DejaVu Sans', Arial, sans-serif" font-size="19" letter-spacing="5" fill="#1B3358">CLIMATE IN BOSNIA — CONTINENTAL EUROPEAN</text>
<g fill="none" stroke="#C9A24B" stroke-width="3.5"><circle cx="150" cy="117" r="8" transform="rotate(0 150 130)"/><circle cx="150" cy="117" r="8" transform="rotate(72 150 130)"/><circle cx="150" cy="117" r="8" transform="rotate(144 150 130)"/><circle cx="150" cy="117" r="8" transform="rotate(216 150 130)"/><circle cx="150" cy="117" r="8" transform="rotate(288 150 130)"/><circle cx="150" cy="130" r="5" fill="#E6C87F"/></g><text x="150" y="196" text-anchor="middle" font-family="'DejaVu Sans', Arial, sans-serif" font-size="21" letter-spacing="2" fill="#10223F">SPRING</text><text x="150" y="230" text-anchor="middle" font-family="Georgia, 'DejaVu Serif', serif" font-size="26" fill="#0B1730" font-weight="bold">10–18°C</text><line x1="300" y1="70" x2="300" y2="230" stroke="#C9A24B" stroke-width="1" opacity="0.4"/><g stroke="#C9A24B" stroke-width="4" fill="none"><circle cx="450" cy="130" r="16" fill="#E6C87F" stroke="#C9A24B"/><line x1="450" y1="106" x2="450" y2="98" transform="rotate(0 450 130)"/><line x1="450" y1="106" x2="450" y2="98" transform="rotate(45 450 130)"/><line x1="450" y1="106" x2="450" y2="98" transform="rotate(90 450 130)"/><line x1="450" y1="106" x2="450" y2="98" transform="rotate(135 450 130)"/><line x1="450" y1="106" x2="450" y2="98" transform="rotate(180 450 130)"/><line x1="450" y1="106" x2="450" y2="98" transform="rotate(225 450 130)"/><line x1="450" y1="106" x2="450" y2="98" transform="rotate(270 450 130)"/><line x1="450" y1="106" x2="450" y2="98" transform="rotate(315 450 130)"/></g><text x="450" y="196" text-anchor="middle" font-family="'DejaVu Sans', Arial, sans-serif" font-size="21" letter-spacing="2" fill="#10223F">SUMMER</text><text x="450" y="230" text-anchor="middle" font-family="Georgia, 'DejaVu Serif', serif" font-size="26" fill="#0B1730" font-weight="bold">20–30°C</text><line x1="600" y1="70" x2="600" y2="230" stroke="#C9A24B" stroke-width="1" opacity="0.4"/><path d="M734 144 Q746 106 770 114 Q764 146 734 144 Z" fill="none" stroke="#C9A24B" stroke-width="4"/><line x1="736" y1="142" x2="764" y2="118" stroke="#C9A24B" stroke-width="3"/><text x="750" y="196" text-anchor="middle" font-family="'DejaVu Sans', Arial, sans-serif" font-size="21" letter-spacing="2" fill="#10223F">AUTUMN</text><text x="750" y="230" text-anchor="middle" font-family="Georgia, 'DejaVu Serif', serif" font-size="26" fill="#0B1730" font-weight="bold">8–16°C</text><line x1="900" y1="70" x2="900" y2="230" stroke="#C9A24B" stroke-width="1" opacity="0.4"/><g stroke="#1B3358" stroke-width="4" stroke-linecap="round"><line x1="1050" y1="130" x2="1050" y2="108" transform="rotate(0 1050 130)"/><line x1="1044" y1="116" x2="1050" y2="110" transform="rotate(0 1050 130)"/><line x1="1056" y1="116" x2="1050" y2="110" transform="rotate(0 1050 130)"/><line x1="1050" y1="130" x2="1050" y2="108" transform="rotate(60 1050 130)"/><line x1="1044" y1="116" x2="1050" y2="110" transform="rotate(60 1050 130)"/><line x1="1056" y1="116" x2="1050" y2="110" transform="rotate(60 1050 130)"/><line x1="1050" y1="130" x2="1050" y2="108" transform="rotate(120 1050 130)"/><line x1="1044" y1="116" x2="1050" y2="110" transform="rotate(120 1050 130)"/><line x1="1056" y1="116" x2="1050" y2="110" transform="rotate(120 1050 130)"/><line x1="1050" y1="130" x2="1050" y2="108" transform="rotate(180 1050 130)"/><line x1="1044" y1="116" x2="1050" y2="110" transform="rotate(180 1050 130)"/><line x1="1056" y1="116" x2="1050" y2="110" transform="rotate(180 1050 130)"/><line x1="1050" y1="130" x2="1050" y2="108" transform="rotate(240 1050 130)"/><line x1="1044" y1="116" x2="1050" y2="110" transform="rotate(240 1050 130)"/><line x1="1056" y1="116" x2="1050" y2="110" transform="rotate(240 1050 130)"/><line x1="1050" y1="130" x2="1050" y2="108" transform="rotate(300 1050 130)"/><line x1="1044" y1="116" x2="1050" y2="110" transform="rotate(300 1050 130)"/><line x1="1056" y1="116" x2="1050" y2="110" transform="rotate(300 1050 130)"/></g><text x="1050" y="196" text-anchor="middle" font-family="'DejaVu Sans', Arial, sans-serif" font-size="21" letter-spacing="2" fill="#10223F">WINTER</text><text x="1050" y="230" text-anchor="middle" font-family="Georgia, 'DejaVu Serif', serif" font-size="26" fill="#0B1730" font-weight="bold">-2–6°C</text>
<rect x="0" y="294" width="1200" height="6" fill="#0B1730"/>
</svg>