<svg xmlns="http://www.w3.org/2000/svg" viewBox="0 0 1600 900" width="1600" height="900">
<defs>
<linearGradient id="msky" x1="0" y1="0" x2="0" y2="1">
  <stop offset="0" stop-color="#0B1730"/><stop offset="0.6" stop-color="#274068"/>
  <stop offset="1" stop-color="#7C6335"/>
</linearGradient></defs>
<rect width="1600" height="900" fill="url(#msky)"/>
<circle cx="1220" cy="300" r="70" fill="#E6C87F" opacity="0.9"/>
<circle cx="1220" cy="300" r="130" fill="#E6C87F" opacity="0.12"/>
<!-- mountains -->
<path d="M0 480 L240 320 L470 470 L700 340 L960 480 L1220 360 L1440 470 L1600 400 L1600 900 L0 900 Z"
      fill="#1B2E52" opacity="0.9"/>
<!-- cliffs -->
<path d="M0 900 L0 520 Q140 540 250 600 L360 660 L360 900 Z" fill="#10223F"/>
<path d="M1600 900 L1600 520 Q1460 540 1350 600 L1240 660 L1240 900 Z" fill="#10223F"/>
<!-- old stone houses -->
<g fill="#0B1730">
  <path d="M70 620 v-70 h110 v70 Z"/><path d="M64 550 L125 512 L186 550 Z"/>
  <path d="M210 660 v-58 h96 v58 Z"/><path d="M204 602 L258 570 L312 602 Z"/>
  <path d="M1310 660 v-58 h96 v58 Z"/><path d="M1304 602 L1358 570 L1412 602 Z"/>
  <path d="M1440 620 v-70 h110 v70 Z"/><path d="M1434 550 L1495 512 L1556 550 Z"/>
</g>
<g fill="#E6C87F" opacity="0.9">
  <rect x="96" y="576" width="13" height="18"/><rect x="132" y="576" width="13" height="18"/>
  <rect x="1466" y="576" width="13" height="18"/><rect x="1502" y="576" width="13" height="18"/>
</g>
<!-- minaret -->
<g fill="#0B1730">
  <rect x="1210" y="380" width="26" height="240"/>
  <rect x="1198" y="470" width="50" height="16"/>
  <path d="M1200 380 h46 l-23 -50 Z"/>
  <circle cx="1223" cy="322" r="5" fill="#C9A24B"/>
  <rect x="1221" y="322" width="4" height="14" fill="#C9A24B"/>
</g>
<!-- Stari Most: high stone arch -->
<path d="M360 660 Q800 380 1240 660 L1240 900 L360 900 Z" fill="#0B1730"/>
<path d="M430 900 Q800 520 1170 900 Z" fill="url(#msky)"/>
<path d="M430 900 Q800 520 1170 900" stroke="#C9A24B" stroke-width="6" fill="none"/>
<path d="M366 654 Q800 380 1234 654" stroke="#C9A24B" stroke-width="5" fill="none" opacity="0.9"/>
<g stroke="#C9A24B" stroke-width="3" opacity="0.6">
  <line x1="560" y1="596" x2="560" y2="760"/><line x1="680" y1="552" x2="680" y2="660"/>
  <line x1="800" y1="538" x2="800" y2="622"/><line x1="920" y1="552" x2="920" y2="660"/>
  <line x1="1040" y1="596" x2="1040" y2="760"/>
</g>
<!-- bridge towers -->
<rect x="336" y="560" width="56" height="120" fill="#0B1730"/>
<path d="M330 560 L364 520 L398 560 Z" fill="#0B1730"/>
<rect x="1208" y="560" width="56" height="120" fill="#0B1730"/>
<path d="M1202 560 L1236 520 L1270 560 Z" fill="#0B1730"/>
<!-- river -->
<rect x="360" y="836" width="880" height="64" fill="#2A4A75"/>
<g stroke="#E6C87F" stroke-width="3" opacity="0.5" fill="none">
  <path d="M480 866 q36 -10 72 0 t72 0"/>
  <path d="M900 878 q36 -10 72 0 t72 0"/>
</g>

  <text x="800" y="150" text-anchor="middle" font-family="'DejaVu Sans', Arial, sans-serif" font-size="22"
        letter-spacing="6" fill="#E6C87F">STUDY DESTINATION</text>
  <text x="800" y="202" text-anchor="middle" font-family="Georgia, 'DejaVu Serif', serif" font-size="58"
        letter-spacing="2" fill="#FFFFFF">BOSNIA &amp; HERZEGOVINA</text>
  <rect x="740" y="224" width="120" height="3" fill="#C9A24B"/></svg>